<svg xmlns="http://www.w3.org/2000/svg" width="535" height="315" fill="none"><rect x="61" width="411.949" height="112.908" rx="4" fill="#f5f8fb"/><rect x="86.944" y="59.699" width="360.963" height="6.489" rx="3" fill="#d9e4ee"/><g fill="#aec4db"><rect x="123.266" y="38.934" width="145.287" height="6.489" rx="3"/><rect x="86.944" y="20.765" width="229.606" height="6.489" rx="3"/></g><g fill="#d9e4ee"><rect x="86.944" y="72.677" width="360.963" height="6.489" rx="3"/><rect x="86.944" y="85.655" width="183.541" height="6.489" rx="3"/></g><rect x="87.444" y="34.243" width="26.241" height="15.871" rx="2.5" fill="#fff" stroke="#9db2c7"/><path d="M98.455 46.445l-.62-2.04H94.71l-.62 2.04h-1.957l3.023-8.6h2.22l3.035 8.6h-1.957zM97.4 42.882l-.973-3.135-.152-.574-1.107 3.71H97.4zm6.03 3.68c-.77 0-1.375-.3-1.816-.897s-.657-1.426-.657-2.484c0-1.074.223-1.9.668-2.508.45-.602 1.067-.902 1.852-.902.824 0 1.453.32 1.887.96h.058c-.1-.488-.135-.924-.135-1.307v-2.098h1.793v9.117h-1.37l-.345-.85h-.077c-.406.645-1.025.967-1.857.967zm.627-1.424c.457 0 .79-.133 1.002-.398s.332-.717.35-1.353v-.193c0-.703-.11-1.207-.328-1.512s-.566-.457-1.054-.457c-.4 0-.71.17-.932.5s-.328.826-.328 1.47.11 1.13.334 1.453.54.48.955.48z" fill="#9db2c7"/><rect x="61" y="126.319" width="411.949" height="112.908" rx="4" fill="#f5f8fb"/><rect x="86.944" y="186.018" width="360.963" height="6.489" rx="3" fill="#d9e4ee"/><g fill="#aec4db"><rect x="123.266" y="165.253" width="145.287" height="6.489" rx="3"/><rect x="86.944" y="147.084" width="229.606" height="6.489" rx="3"/></g><g fill="#d9e4ee"><rect x="86.944" y="198.996" width="360.963" height="6.489" rx="3"/><rect x="86.944" y="211.974" width="183.541" height="6.489" rx="3"/></g><rect x="87.444" y="160.562" width="26.241" height="15.871" rx="2.5" fill="#fff" stroke="#9db2c7"/><path d="M98.455 172.764l-.62-2.04H94.71l-.62 2.04h-1.957l3.023-8.6h2.22l3.035 8.6h-1.957zm-1.055-3.562l-.973-3.135-.152-.574-1.107 3.71H97.4zm6.03 3.68c-.77 0-1.375-.298-1.816-.896s-.657-1.426-.657-2.484c0-1.075.223-1.91.668-2.508.45-.602 1.067-.903 1.852-.903.824 0 1.453.32 1.887.96h.058c-.1-.488-.135-.923-.135-1.306v-2.098h1.793v9.117h-1.37l-.345-.85h-.077c-.406.644-1.025.966-1.857.966zm.627-1.423c.457 0 .79-.133 1.002-.4s.332-.717.35-1.353v-.194c0-.703-.11-1.207-.328-1.51s-.566-.457-1.054-.457c-.4 0-.71.17-.932.51s-.328.827-.328 1.47.11 1.13.334 1.453.54.48.955.48z" fill="#9db2c7"/><path d="M61 256a4 4 0 0 1 4-4h404a4 4 0 0 1 4 4v56H61v-56z" fill="#f5f8fb"/><g fill="#aec4db"><rect x="123.317" y="291.139" width="145.287" height="6.489" rx="3"/><rect x="86.995" y="272.97" width="229.606" height="6.489" rx="3"/></g><rect x="87.495" y="286.448" width="26.241" height="15.871" rx="2.5" fill="#fff" stroke="#9db2c7"/><path d="M98.506 298.65l-.62-2.04h-3.123l-.62 2.04h-1.957l3.023-8.6h2.22l3.035 8.6h-1.957zm-1.055-3.562l-.973-3.135-.152-.574-1.107 3.7h2.232zm6.03 3.68c-.77 0-1.375-.3-1.816-.897s-.656-1.426-.656-2.484c0-1.075.222-1.9.668-2.508s1.066-.902 1.85-.902c.825 0 1.453.32 1.887.96h.06a6.49 6.49 0 0 1-.135-1.307v-2.098h1.793v9.117h-1.37l-.346-.85h-.076c-.406.644-1.026.967-1.858.967zm.627-1.424c.457 0 .8-.133 1.002-.4s.332-.716.352-1.353v-.194c0-.703-.1-1.207-.328-1.5s-.567-.457-1.055-.457c-.398 0-.7.17-.932.5s-.328.827-.328 1.47.112 1.13.334 1.453.54.48.955.48zM297.12 193.28l.766 23.148 6.14-5.215 5.636 9.846 5.02-2.96-5.638-9.85 7.507-2.828-19.43-12.14zm-14.297-123.2l.765 23.148 6.14-5.215 5.635 9.847 5.02-2.96-5.638-9.852 7.507-2.828-19.43-12.14zm-129.75-17.782l.766 23.148 6.14-5.215 5.635 9.847 5.02-2.96-5.638-9.852 7.506-2.828-19.43-12.14zm223.15 111.782l.766 23.147 6.14-5.215 5.636 9.847 5.02-2.96-5.638-9.852 7.507-2.827-19.43-12.14z" fill="#9db2c7"/><g fill="#062148"><path d="M450.2 281.77c1.118.555 9.5 6.32 21.98 6.32s23.06-6.223 24.315-6.468c1.203 1.797 2.26 4.34 2.26 4.34.04.093.025.2-.037.28l-20.13 23.702c-4.544.948-10.357.153-10.357.153l-20.187-24.113c-.073-.088-.085-.21-.03-.3 0 0 2.05-3.97 2.184-3.904z"/><path d="M500.417 308.076c7.775-3.735 24.782-13.8 31.946-28.862.996-2.095-1.496-10.946-9.658-8.085-5.05 1.77-31.3 10.595-35.53 16.194-6.852 9.044-7.17 17.283-8.584 22.62 3.854 1.656 17.938 0 21.826-1.868zm-54.974.06c-7.775-3.736-30.298-19.9-31.345-28.922-.268-2.303-2.525-9.362 7.158-9.057 5.05 1.77 33.27 11.996 38.03 17.166 5.963 6.48 7.92 17.694 8.583 22.62-3.854 1.656-18.538.06-22.426-1.808z"/></g><path d="M497.14 303.863c-7.414-.326-15.473-1.195-18.548-1.87-8.84-3.586-57.25-30.273-57.25-30.273-7.835-2.064-9.948 4.752-7.576 8.906 6.173 10.8 11.97 17.02 33.883 19.907 6.52.86 18.846 4.518 25.535 7 .448 1.522 2.025 3.232 5.68 3.595 1.942.192 13.003 4.138 18.147 3.688 8.57-.75 8.532-4.556 8.57-6.246s-2.068-4.43-8.442-4.71z" fill="#000"/><path d="M497.14 303.863c-7.413-.326-15.473-1.195-18.548-1.868-.208-.084-.445-.187-.695-.298l-5.96 5.385 1.248.453c.45 1.523 2.026 3.233 5.68 3.595 1.942.193 13.003 4.138 18.146 3.69 8.57-.75 8.533-4.557 8.57-6.247s-2.067-4.43-8.442-4.71z" fill="#02132b"/><path d="M497.01 314.82c8.57-.75 8.533-4.557 8.57-6.247.033-1.495-1.615-3.806-6.405-4.515-1.21 1.008-3 4.097-3.216 8.293-9.685.374-18.255-3.012-22.756-4.764.468 1.5 2.045 3.186 5.66 3.544 1.942.193 13.003 4.138 18.146 3.69z" fill="#fff"/><path d="M483.392 302.197a10.22 10.22 0 0 0-1.542 5.459l.003.413m4.155-5.457c-1.02 1.64-1.554 3.532-1.542 5.46l.003.413m4.186-5.537c-1.02 1.64-1.553 3.532-1.54 5.46l.003.412m3.782-5.617a10.22 10.22 0 0 0-1.541 5.459l.002.413" stroke="#dddfe0"/><path opacity=".047" d="M478.592 301.995c-1.35-.548-3.617-1.663-6.483-3.156l-5.023 2.725-8.38 1.43c5.256 1.422 10.747 3.156 14.48 4.542.1.342.262.693.487 1.037 3.9-2.11 13.596-3.535 17.44-5.077-5.37-.413-10.273-1.01-12.52-1.5z" fill="#000"/><path d="M421.256 270.158l43.906 24.505c0 3.34-.432 6.827-.656 7.612-.604 1.375-4.332 6.173-5.957 8.1-6.254-4.078-9.204-5.925-13-7.077-25.4-7.688-27.698-11.29-33.87-22.1-2.373-4.153 1.753-13.105 9.588-11.04z" fill="#062148"/><path opacity=".05" d="M411.403 280.638l-.112-.298c-.02-.058-.034-.12-.05-.18l-.08-.287-.04-.197-.052-.29-.024-.206-.028-.3-.01-.21-.006-.308.006-.214.017-.32.02-.2.04-.33.032-.205.065-.343.043-.196.09-.354.052-.185.118-.366.06-.17.147-.378.065-.154.18-.39.064-.133.22-.405.06-.106.27-.43.04-.064.344-.477.49.875c7.07 13.23 43.432 25.92 51.077 28.466-.61 1.385-4.333 6.177-5.957 8.102-6.254-4.078-9.205-5.925-13-7.077-25.4-7.688-27.698-11.29-33.87-22.1a4.47 4.47 0 0 1-.209-.415c-.02-.047-.037-.097-.056-.145z" fill="#000"/><path d="M464.506 302.274a4.53 4.53 0 0 0 .087-.39c-3.918.915-9.935 2.244-15.163 2.308-.46.006-.895.023-1.312.048 2.785 1.195 5.637 3.008 10.43 6.134 1.625-1.926 5.353-6.724 5.957-8.1z" fill="#1c1c1d"/><path d="M524.65 272.493s-49.238 27.87-57.535 29.828c-3.35.748-12.45 1.84-18.997 1.92-6.38.077-7.184 3.076-7.147 4.766s3.564 5.48 6.19 5.812c8.1 1.03 17.848-2.65 19.8-2.842 4.046-.4 6.192-3.3 6.433-4.92 6.228-2.524 19.768-5.51 25.428-6.195 22.094-2.67 27.71-10.075 33.882-20.885 2.372-4.154-.208-9.546-8.043-7.482z" fill="#000"/><path d="M524.744 270.565l-43.906 24.506c0 3.34.432 6.826.656 7.61.604 1.376 4.332 6.174 5.957 8.1 6.254-4.078 9.204-5.925 13.01-7.077 25.41-7.69 27.697-11.29 33.87-22.1 2.37-4.153-1.753-13.106-9.59-11.04z" fill="#062148"/><path opacity=".05" d="M534.597 281.046l.112-.298.052-.18.078-.288.04-.197.052-.3.024-.206.028-.3.01-.21.005-.308-.005-.214-.018-.32-.02-.2-.04-.33-.033-.205-.064-.343-.044-.196-.09-.355-.052-.184-.118-.366-.06-.17-.148-.378-.063-.154-.18-.39-.065-.134-.22-.405-.06-.105-.27-.43-.04-.064-.344-.477-.49.874c-7.07 13.23-43.432 25.92-51.077 28.467.6 1.385 4.334 6.177 5.958 8.102 6.254-4.078 9.203-5.925 13-7.077 25.41-7.69 27.697-11.29 33.87-22.1a4.59 4.59 0 0 0 .208-.415c.02-.047.036-.097.056-.145z" fill="#000"/><path d="M468.228 301.98l-1.113.34c-3.35.748-12.45 1.84-18.997 1.92-6.38.077-7.184 3.076-7.147 4.766s3.564 5.48 6.19 5.812c8.1 1.03 17.848-2.65 19.8-2.842 4.046-.4 6.192-3.3 6.433-4.92 0 0-3.847 1.057-3.028-.835.737-1.703-.278-3.654-2.078-4.13-.127-.034-.158-.065-.05-.1z" fill="#02132b"/><path d="M449.75 313.06c1.274-3.725-.067-7.145-.963-8.835l-.67.015c-6.38.078-7.184 3.076-7.148 4.766s3.565 5.48 6.2 5.813c8.1 1.03 17.847-2.65 19.8-2.843s3.448-.966 4.514-1.894c-5.447 1.432-21.808 5.523-21.714 2.978z" fill="#fff"/><path d="M462.947 302.7c1.02 1.64 1.553 3.532 1.54 5.46l-.002.413m-4.155-5.458a10.22 10.22 0 0 1 1.542 5.46l-.003.413m-4.185-5.538c1.02 1.64 1.553 3.532 1.54 5.46l-.003.413m-3.783-5.618c1.02 1.64 1.553 3.532 1.54 5.46l-.003.412" stroke="#dddfe0"/><path d="M440.952 244.943zm.006 0zm.006 0zm.01 0zm.007 0zm.007 0zm.007 0z" fill="#89cfbc"/><path d="M492.364 205.254c0 13.56-8.422 24.55-18.812 24.55s-18.81-10.99-18.81-24.55 8.422-24.55 18.81-24.55 18.812 10.993 18.812 24.55z" fill="#062148"/><g fill="#061f44"><path d="M506.547 234.12c-4.488-7.502-13.522-14.594-33.284-14.594-21.34 0-28.614 6.535-32.584 13.52-4.395 7.734-7.465 24.4-9.075 35.117-.8 5.332 3.05 10.243 8.45 10.78l34.168 3.4 32.043-3.128c5.397-.527 9.26-5.425 8.47-10.753-1.538-10.378-4.372-26.342-8.188-34.332z"/><path d="M505.538 237.867c-3.62-6.05-16.352-11.027-32.293-11.027-17.214 0-29.383 5.8-31.94 10.2-3.606 6.204.795 36.054 5.152 36.487l27.56 2.734 25.847-2.523c4.353-.425 8.75-29.426 5.673-35.87z"/></g><path d="M457.827 199.387c-.98.213-3.945 1.362-3.372 3.968s2.8 5.68 3.78 5.468 2.56-2.497 1.987-5.102-1.414-4.547-2.395-4.334zm31.75 0c-.98-.213-2.655 1.728-3.228 4.334s1.425 4.9 2.404 5.102 3.208-2.862 3.78-5.468-1.977-3.755-2.957-3.968z" fill="#1c1c1a"/><g fill="#000"><path d="M479.654 176.8c-3.457 8.474-6.47-3.144-13.243 3.033-12.023 4.426-9.72 11.584-8.6 17.44 0 13.013 8.888 23.563 15.685 23.563 7.28 0 15.684-10.55 15.684-23.563 3.185-12.764-1.51-16.63-9.525-20.473z"/><path d="M473.306 232.64c2.22-.01 5.232-1.168 7.873-2.835 2.24-1.413 3.038-4.327 1.733-6.623-.515-.908-.91-1.857-.91-2.63v-6.477H464.99v6.477c0 1.035-.286 2.063-.794 3.02-1.287 2.42-.57 5.428 1.83 6.772 2.094 1.173 4.658 2.21 7.28 2.296z"/><path d="M486.5 198.156c-2.03-5.657-6.19-.946-13.134-.946s-10.946-4.724-12.895.978c-.8 2.932-.422 7.427-2.306 7.982.7 3.483 1.8 9.473 2.27 10.772s9.33 8.415 13.07 8.415c3.983 0 12.784-7.245 13.16-8.315s1.46-7.195 2.158-10.627c-1.898-.555-1.482-5.346-2.324-8.26z"/></g><path d="M494.38 193.335C488.54 175.414 474.222 175 474.222 175s-14.317.414-20.16 18.335c-4.742 14.547.26 33.263 11.962 37.008-6.772-4.986-21.528-44.18 8.197-44.18 28.835 3.584 13.514 37.634 6.957 43.64 11.5-4.447 17.944-21.922 13.2-36.47z" fill="#061f44"/><path d="M493.363 200.997c-4.694-21.8-32.78-21.1-38.622-3.178-4.742 14.547 2.043 28.874 11.285 32.524-6.773-4.986-21.528-40.04 8.196-40.04 28.835 3.584 13.514 33.496 6.957 39.502 9.027-4.447 15.404-13.855 12.184-28.807z" fill="#062148"/><path d="M484.395 226.406c-2.455 4.624-3.188 8.88-3.188 12.016.001 1.956.28 3.47.624 4.404.08.215.318.325.534.247s.327-.316.248-.53c-.297-.8-.574-2.247-.573-4.12 0-3 .704-7.133 3.1-11.63a.41.41 0 0 0-.174-.559c-.203-.107-.455-.03-.562.173zm-21.762 1.28c3.037 3.703 7.244 10.4 7.652 18.986.01.228.207.405.436.393s.407-.204.396-.432c-.424-8.84-4.735-15.682-7.84-19.47a.42.42 0 0 0-.585-.06.41.41 0 0 0-.06.581z" fill="#fff"/><path fill-rule="evenodd" d="M501.053 285.637H445.33c-.903 0-1.684-.557-2.004-1.36h.58a2.17 2.17 0 0 0 1.424.531h55.724a2.17 2.17 0 0 0 1.424-.531h.58a2.16 2.16 0 0 1-2.004 1.359z" fill="#cfd1d3"/><path d="M505.105 250.665h-64.2c-1.313 0-2.32 1.274-2.136 2.7l4.315 33.302c.152 1.167 1.062 2.033 2.137 2.033h55.578c1.075 0 1.985-.866 2.136-2.033l4.316-33.302c.185-1.425-.824-2.7-2.136-2.7z" fill="#ebebeb"/><path d="M472.436 274.653c0-.884.43-1.6.96-1.6s.958.716.958 1.6c0 .134-1.917.134-1.917 0zm2.013-3.51a1.5 1.5 0 0 1 1.496-1.504 1.5 1.5 0 1 1 0 3.008 1.5 1.5 0 0 1-1.496-1.504zm-4.946 0a1.5 1.5 0 0 1 1.496-1.504 1.5 1.5 0 1 1 0 3.008 1.5 1.5 0 0 1-1.496-1.504zm-5.196 5.314l4.346-2.52a7.28 7.28 0 0 0 1.218.693v2.62h.587v-1.12h.99v1.12h.71v-1.12h1v1.12h.65v-1.12h.99v1.12h.68v-1.12h1v1.12h.618v-2.595a7.27 7.27 0 0 0 1.057-.574l4.093 2.375c-.293.618-.072 1.366.525 1.712a1.32 1.32 0 0 0 1.803-.488 1.33 1.33 0 0 0 .043-1.257 1.33 1.33 0 0 0 1.068-.662c.367-.634.155-1.444-.474-1.81s-1.435-.145-1.803.49l-.037.068-3.542-2.055c.482-.723.752-1.54.748-2.407-.003-.91-.308-1.77-.844-2.52l3.73-2.163a1.31 1.31 0 0 0 1.738.399c.63-.365.844-1.176.482-1.812-.23-.4-.635-.637-1.062-.663a1.34 1.34 0 0 0-.036-1.26 1.31 1.31 0 0 0-1.795-.49 1.33 1.33 0 0 0-.482 1.811l.04.065-4.348 2.52c-1.23-.766-2.803-1.226-4.52-1.226-1.802 0-3.444.51-4.7 1.346l-4.544-2.635.04-.067c.367-.634.155-1.444-.474-1.81s-1.435-.145-1.803.49a1.33 1.33 0 0 0-.042 1.256c-.428.026-.836.262-1.068.663-.367.634-.155 1.444.473 1.808a1.32 1.32 0 0 0 1.744-.397l4.022 2.333c-.46.71-.716 1.508-.713 2.352.003.793.236 1.545.65 2.222l-3.86 2.24-.037-.07a1.31 1.31 0 0 0-1.796-.491c-.628.364-.844 1.175-.48 1.81.23.402.635.638 1.06.665-.19.385-.193.856.036 1.258a1.31 1.31 0 0 0 1.796.491c.597-.346.822-1.096.532-1.715z" fill="#333"/><g fill-rule="evenodd"><path d="M348.444 312l-.76-22.994 19.43 12.14-7.507 2.828L364.2 312h-6.715l-2.897-5.06-5.96 5.06h-.186z" fill="#9db2c7"/><path d="M381 157.5c0 61.58-49.92 111.5-111.5 111.5S158 219.08 158 157.5 207.92 46 269.5 46 381 95.92 381 157.5zm-20 0c0 50.534-40.966 91.5-91.5 91.5a91.11 91.11 0 0 1-56.735-19.708l128.527-128.527A91.11 91.11 0 0 1 361 157.5zm-35.325-72.23C310.17 73.193 290.675 66 269.5 66c-50.534 0-91.5 40.966-91.5 91.5a91.1 91.1 0 0 0 19.269 56.175L325.675 85.27z" fill="#d90000"/></g></svg>